<?xml version="1.0" encoding="UTF-8" standalone="no"?>
<!DOCTYPE svg PUBLIC "-//W3C//DTD SVG 1.1//EN" "http://www.w3.org/Graphics/SVG/1.1/DTD/svg11.dtd">
<svg width="100%" height="100%" viewBox="0 0 1536 1536" version="1.1" xmlns="http://www.w3.org/2000/svg" xmlns:xlink="http://www.w3.org/1999/xlink" xml:space="preserve" xmlns:serif="http://www.serif.com/" style="fill-rule:evenodd;clip-rule:evenodd;stroke-linejoin:round;stroke-miterlimit:2;">
    <g transform="matrix(2,0,0,2,0,0)">
        <g transform="matrix(1,0,0,1,-128,-128)">
            <path d="M551.538,656.57C541.167,662.519 531.985,669.326 524.964,678.717C523.016,681.322 520.462,682.529 517.187,682.349C515.194,682.239 513.165,682.138 511.194,682.377C505.632,683.054 502.086,680.667 498.557,676.327C486.841,661.919 470.923,653.659 453.824,647.362C432.931,639.667 411.292,635.509 389.203,633.196C353.482,629.455 317.727,630.345 281.959,631.997C274.805,632.328 271.357,629.599 271.168,622.205C270.895,611.548 271.008,600.88 271,590.217C270.932,498.075 270.873,405.934 270.813,313.793C270.812,312.46 270.802,311.127 270.842,309.795C271.067,302.193 273.632,299.64 281.184,299.635C310.162,299.616 339.077,300.805 367.942,303.546C396.182,306.228 424.027,310.907 451.009,319.742C470.443,326.106 488.934,334.496 503.475,349.575C506.685,352.903 509.462,356.649 512.584,360.376C513.157,359.973 513.823,359.721 514.158,359.238C526.039,342.132 543.008,331.887 561.772,324.206C584.097,315.069 607.544,310.199 631.295,306.651C667.927,301.179 704.815,299.63 741.798,299.603C752.96,299.594 755.185,301.637 754.898,313.087C754.137,343.405 754.422,373.725 754.4,404.044C754.35,476.191 754.348,548.338 754.322,620.484C754.318,630.455 752.153,632.48 742.234,632C720.774,630.962 699.303,629.772 677.816,630.44C643.806,631.497 609.992,634.158 577.416,645.142C568.559,648.128 560.013,651.814 551.538,656.57M501.93,588.5C501.53,521.537 502.028,454.571 501.013,387.61C500.893,379.688 498.52,372.935 493.686,366.901C490.237,362.594 486.224,358.867 481.774,355.57C466.788,344.467 449.659,338.126 431.924,333.253C387.055,320.924 340.985,319.387 294.875,318.262C291.468,318.179 289.912,319.353 290.099,322.832C290.224,325.157 290.08,327.495 290.078,329.827C290.025,421.455 289.973,513.082 289.924,604.71C289.921,611.801 290.138,611.909 297.208,611.808C340.177,611.193 383.121,610.91 425.54,619.583C452.064,625.007 477.405,633.133 498.987,650.322C499.686,650.878 500.338,651.891 501.928,651.119C501.928,630.698 501.928,610.099 501.93,588.5M735.902,517.5C735.883,454.011 735.864,390.522 735.843,327.033C735.841,318.229 735.834,318.199 727.283,318.352C707.633,318.705 688.015,319.707 668.422,321.226C638.158,323.572 608.163,327.409 579.253,337.275C563.347,342.703 548.404,349.84 536.185,361.749C528.175,369.556 523.577,378.73 524.264,390.265C524.619,396.243 524.33,402.259 524.321,408.258C524.208,487.078 524.085,565.897 524.022,644.716C524.02,646.896 523.202,649.382 525.196,651.203C527.007,651.152 527.985,649.896 529.152,649.004C535.79,643.932 542.773,639.393 550.32,635.803C582.617,620.438 617.283,615.421 652.434,612.732C678.052,610.771 703.726,611.733 729.379,611.791C735.748,611.806 735.808,611.864 735.818,605.485C735.866,576.49 735.877,547.495 735.902,517.5Z" fill="#1F6FEB" style="fill-rule:nonzero;"/>
        </g>
        <g transform="matrix(1,0,0,1,-128,-128)">
            <path d="M387.465,643.335C416.873,646.687 445.142,652.496 470.999,666.736C480.112,671.755 488.515,677.733 493.837,687.099C496.035,690.966 499.683,692.574 503.875,692.57C510.533,692.563 517.193,692.226 523.848,691.932C526.789,691.803 529.636,690.864 531.218,688.305C541.212,672.139 557.292,664.397 573.949,657.755C593.869,649.811 614.818,646.031 636.071,643.618C664.021,640.445 691.947,641.18 719.852,643.806C731.104,644.864 742.291,646.647 753.488,648.24C759.317,649.069 762.573,646.952 764.065,641.167C764.831,638.197 764.635,635.21 764.684,632.222C766.28,534.906 765.449,437.582 765.656,340.261C765.672,332.701 765.684,332.701 773.315,332.632C790.208,332.481 792.147,334.487 792.142,351.55C792.116,455.881 792.124,560.211 792.1,664.542C792.097,680.026 789.104,683.053 773.735,683.06C708.237,683.093 642.738,683.136 577.24,683.006C572.248,682.996 569.142,684.351 566.245,688.706C556.448,703.433 541.966,710.773 524.656,712.029C515.405,712.701 505.998,713.04 496.728,711.52C481.37,709.001 468.775,701.68 460.029,688.747C456.993,684.257 453.68,683.01 448.553,683.019C382.721,683.139 316.89,683.059 251.058,683.029C249.725,683.028 248.388,683.079 247.059,683C237.72,682.443 233.888,678.501 233.805,669.094C233.711,658.428 233.781,647.761 233.781,637.095C233.775,540.597 233.77,444.1 233.761,347.602C233.76,336.203 237.249,332.579 248.628,332.696C261.544,332.829 260.205,330.499 260.215,344.427C260.28,428.425 260.252,512.423 260.374,596.42C260.394,610.411 260.938,624.404 261.359,638.392C261.587,645.962 265.499,649.082 273.055,647.961C302.578,643.58 332.213,640.716 362.106,641.717C370.418,641.995 378.715,642.724 387.465,643.335Z" fill="#1F6FEB" style="fill-rule:nonzero;"/>
        </g>
        <g transform="matrix(1,0,0,1,-128,-128)">
            <path d="M432.747,541.391C404.759,534.934 376.929,530.358 348.583,529.077C339.435,528.663 330.303,528.107 321.141,528.195C317.661,528.228 314.402,527.092 314.251,523.238C314.09,519.102 317.283,517.715 321.048,517.65C371.428,516.78 420.506,524.205 468.142,540.777C469.867,541.377 471.58,542.083 473.174,542.965C475.84,544.441 477.931,546.552 476.447,549.813C474.984,553.029 472.167,553.767 468.884,552.536C460.623,549.438 452.269,546.629 443.748,544.327C440.217,543.373 436.685,542.418 432.747,541.391Z" fill="#1F6FEB" style="fill-rule:nonzero;"/>
        </g>
        <g transform="matrix(1,0,0,1,-128,-128)">
            <path d="M454.18,382.672C460.367,384.806 466.281,386.531 471.87,389.167C475.329,390.797 477.563,393.271 475.87,397.02C474.206,400.702 470.876,400.043 467.667,398.83C435.276,386.589 401.692,379.7 367.316,376.121C352.07,374.534 336.797,373.939 321.506,373.457C317.822,373.341 314.435,372.735 314.259,368.469C314.079,364.102 317.698,362.985 321.182,363.016C331.155,363.105 341.146,363.194 351.093,363.85C371.493,365.195 391.823,367.253 411.867,371.526C426.021,374.544 440.051,378.013 454.18,382.672Z" fill="#1F6FEB" style="fill-rule:nonzero;"/>
        </g>
        <g transform="matrix(1,0,0,1,-128,-128)">
            <path d="M400.454,461.382C423.936,465.101 446.539,470.539 468.552,478.341C470.117,478.896 471.678,479.515 473.144,480.288C475.924,481.754 477.736,483.97 476.241,487.168C474.827,490.191 472.131,490.774 469.037,489.697C466.366,488.768 463.671,487.904 460.998,486.981C431.111,476.667 400.284,471.046 368.868,468.123C353.602,466.702 338.336,465.988 323.015,466.098C321.372,466.109 319.676,465.97 318.094,465.557C315.827,464.964 314.169,463.485 314.297,460.952C314.416,458.59 315.849,456.935 318.065,456.13C318.979,455.798 320.017,455.695 321.001,455.682C347.5,455.331 373.868,456.847 400.454,461.382Z" fill="#1F6FEB" style="fill-rule:nonzero;"/>
        </g>
        <g transform="matrix(1,0,0,1,-128,-128)">
            <path d="M415.549,505.513C384.144,499.444 352.875,496.641 321.314,497.081C317.616,497.132 314.224,495.839 314.331,491.691C314.439,487.506 318.003,486.687 321.624,486.639C345.967,486.316 370.167,487.893 394.262,491.494C419.658,495.289 444.623,500.731 468.769,509.603C470.638,510.29 472.557,510.971 474.24,512.003C476.381,513.316 477.574,515.315 476.631,517.949C475.713,520.514 473.688,521.475 471.105,521.247C469.966,521.147 468.813,520.839 467.739,520.432C450.895,514.041 433.565,509.356 415.549,505.513Z" fill="#1F6FEB" style="fill-rule:nonzero;"/>
        </g>
        <g transform="matrix(1,0,0,1,-128,-128)">
            <path d="M422.669,414.431C397.978,409.108 373.419,406.212 348.61,405.057C339.625,404.639 330.653,404.275 321.662,404.314C318.048,404.33 314.385,403.502 314.24,399.386C314.08,394.878 317.997,393.944 321.69,393.867C340.191,393.48 358.616,394.946 376.978,396.877C403.486,399.665 429.627,404.545 455.112,412.527C460.98,414.365 466.772,416.464 472.526,418.638C475.718,419.845 477.543,422.36 476.15,425.746C474.693,429.287 471.495,429.174 468.486,427.97C453.764,422.077 438.493,418.06 422.669,414.431Z" fill="#1F6FEB" style="fill-rule:nonzero;"/>
        </g>
        <g transform="matrix(1,0,0,1,-128,-128)">
            <path d="M445.434,440.23C449.112,441.587 451.662,443.659 450.256,447.428C448.854,451.184 445.312,451.005 442.136,450.107C419.661,443.753 396.711,439.924 373.525,437.617C357.141,435.986 340.701,434.774 324.193,435.225C320.064,435.337 315.315,435.786 314.199,430.212C313.503,426.738 317.424,424.731 324.18,424.687C365.164,424.422 405.45,429.624 445.434,440.23Z" fill="#1F6FEB" style="fill-rule:nonzero;"/>
        </g>
        <g transform="matrix(1,0,0,1,-128,-128)">
            <path d="M317.932,549.24C333.287,547.835 348.247,548.76 363.139,549.949C382.847,551.523 402.367,554.686 421.677,559.019C423.46,559.419 425.198,560.016 426.981,560.414C430.69,561.243 432.685,563.698 431.829,567.246C430.984,570.753 427.923,571.299 424.591,570.628C410.271,567.749 395.963,564.843 381.44,563.065C362.943,560.8 344.399,559.461 325.768,559.296C323.938,559.279 322.108,559.294 320.279,559.264C317.533,559.219 315.365,558.131 314.462,555.428C313.482,552.492 315.142,550.718 317.932,549.24Z" fill="#1F6FEB" style="fill-rule:nonzero;"/>
        </g>
        <g transform="matrix(1,0,0,1,-128,-128)">
            <path d="M638.768,515.812C629.052,524.017 618.29,528.766 605.849,529.492C602.224,529.704 600.067,530.756 600.94,535.381C602.176,541.932 599.37,547.591 594.661,551.979C590.078,556.25 587.868,560.954 588.183,567.385C588.527,574.41 584.611,579.016 577.839,580.644C575.952,581.098 575.05,582.155 574.052,583.503C569.296,589.927 564.509,596.329 559.699,602.712C558.632,604.128 557.424,605.438 556.387,606.67C554.5,605.987 554.942,604.878 555.13,603.991C557.133,594.57 557.591,584.838 560.834,575.667C561.22,574.575 561.344,573.612 560.786,572.363C557.602,565.25 559.171,558.259 565.562,554.031C570.259,550.923 571.649,546.671 571.58,541.687C571.47,533.835 574.079,527.664 581.363,524.043C584.843,522.313 583.098,519.731 582.334,517.606C577.328,503.68 577.881,489.85 582.72,476.047C583.423,474.04 583.946,471.902 585.968,470.209C589.251,472.806 589.474,477.227 592.285,480.692C593.401,473.112 591.219,465.663 593.587,458.792C595.957,451.913 600.012,445.822 604.901,439.592C608.07,444.525 607.461,450.015 610.233,454.962C610.467,450.732 611,447.086 610.808,443.478C610.116,430.503 615.691,419.909 623.212,410.067C630.542,400.474 639.108,392.129 649.207,385.438C650.274,384.732 651.237,383.652 653.07,384.013C654.764,387.281 653.821,391.052 654.411,394.682C655.65,394.429 655.669,393.286 655.808,392.496C657.409,383.381 663.009,377.841 670.957,373.472C684.867,365.825 699.151,359.143 714.13,353.948C719.551,352.068 720.743,353.078 720.597,358.656C720.399,366.192 718.983,373.541 716.941,380.746C713.918,391.412 712.336,393.012 698.017,401.582C702.007,401.08 705.405,400.158 709.449,401.244C705.364,425.89 693.448,442.79 666.658,446.073C674.318,447.513 681.371,446.081 689.664,445.991C675.984,474.723 658.173,497.218 625.737,506.073C633.778,507.485 640.529,506.004 648.01,505.475C645.557,510.115 642.038,512.624 638.768,515.812M686.136,386.694C646.889,424.058 617.07,467.913 595.747,517.607C611.72,495.178 625.327,471.194 640.879,448.474C656.458,425.715 673.193,403.826 690.322,382.168C689.092,383.519 687.862,384.869 686.136,386.694Z" fill="#1F6FEB" style="fill-rule:nonzero;"/>
        </g>
    </g>
</svg>
